# xmcd CD database file
#
# Track frame offsets:
#	150
#	25201
#	45526
#	74852
#	90822
#	107547
#	123747
#	138373
#	161623
#	181874
#	198749
#
# Disc length: 2831 seconds
#
# Revision: 0
# Processed by: cddbd v1.5.1PL2 Copyright (c) Steve Scherf et al.
# Submitted via: CDex 1.51
#
DISCID=960b0d0b
DTITLE=三上ちさこ - Here
DYEAR=1900
DGENRE=Rock
TTITLE0=解放区
TTITLE1=相対形
TTITLE2=神の樹
TTITLE3=INSANE
TTITLE4=処方箋
TTITLE5=3 set
TTITLE6=Here
TTITLE7=Yes
TTITLE8=望
TTITLE9=再起動
TTITLE10=pendulum
EXTD=
EXTT0=
EXTT1=
EXTT2=
EXTT3=
EXTT4=
EXTT5=
EXTT6=
EXTT7=
EXTT8=
EXTT9=
EXTT10=
PLAYORDER=
